<svg xmlns="http://www.w3.org/2000/svg" width="160" height="160" viewBox="0 0 160 160" role="img" aria-labelledby="title desc">
  <title id="title">Default player avatar</title>
  <desc id="desc">A friendly illustrated player portrait.</desc>
  <defs>
    <linearGradient id="bg" x1="20" y1="12" x2="142" y2="150" gradientUnits="userSpaceOnUse">
      <stop stop-color="#FFD93D"/>
      <stop offset=".48" stop-color="#FF8E53"/>
      <stop offset="1" stop-color="#C77DFF"/>
    </linearGradient>
    <linearGradient id="shirt" x1="44" y1="112" x2="126" y2="152" gradientUnits="userSpaceOnUse">
      <stop stop-color="#4D96FF"/>
      <stop offset="1" stop-color="#6BCB77"/>
    </linearGradient>
    <filter id="shadow" x="-20%" y="-20%" width="140%" height="140%" color-interpolation-filters="sRGB">
      <feDropShadow dx="0" dy="8" stdDeviation="8" flood-color="#1A1640" flood-opacity=".32"/>
    </filter>
  </defs>
  <rect width="160" height="160" rx="80" fill="url(#bg)"/>
  <circle cx="80" cy="72" r="51" fill="#1A1640" opacity=".18"/>
  <g filter="url(#shadow)">
    <path d="M30 148c6-27 25-43 50-43s44 16 50 43H30Z" fill="url(#shirt)"/>
    <path d="M59 108c3 9 11 15 21 15s18-6 21-15v-14H59v14Z" fill="#F5B07A"/>
    <circle cx="80" cy="72" r="36" fill="#FFC18E"/>
    <path d="M45 69c0-26 14-43 36-43 19 0 34 12 36 34-14-5-29-12-43-23-7 13-17 22-29 27v5Z" fill="#45304F"/>
    <circle cx="64" cy="75" r="4" fill="#251A31"/>
    <circle cx="96" cy="75" r="4" fill="#251A31"/>
    <path d="M68 91c7 7 17 7 24 0" fill="none" stroke="#251A31" stroke-width="5" stroke-linecap="round"/>
    <path d="M40 77c0-6 4-11 9-11v22c-5 0-9-5-9-11Zm71-11c5 0 9 5 9 11s-4 11-9 11V66Z" fill="#F5B07A"/>
  </g>
</svg>
